<svg width="28" height="28" viewBox="0 0 28 28" fill="none" xmlns="http://www.w3.org/2000/svg">
<circle cx="14" cy="14" r="14" fill="#292930"/>
<path fill-rule="evenodd" clip-rule="evenodd" d="M12.4511 8.0048C12.3998 7.84824 12.2406 7.75381 12.0786 7.78388L10.417 8.09234C10.4091 8.09379 10.4014 8.09553 10.3937 8.09754C9.52898 8.32395 8.85108 8.99394 8.61357 9.8553L7.78923 12.848C7.74215 13.0189 7.83898 13.1963 8.00816 13.2492L9.86996 13.8314L10.0667 19.3446C10.0729 19.5204 10.2164 19.6601 10.3923 19.6618L13.9394 19.6952L13.9404 19.6952L17.481 19.7178C17.6565 19.7189 17.8019 19.5821 17.8115 19.4069L18.1124 13.8983L19.985 13.3515C20.1552 13.3018 20.2554 13.1262 20.2115 12.9544L19.4432 9.94647C19.2224 9.08085 18.5568 8.3983 17.6969 8.15549C17.6877 8.15289 17.6784 8.15069 17.669 8.14891L15.9618 7.82428C15.9433 7.81767 15.9241 7.81265 15.9041 7.80937C15.7452 7.78328 15.5907 7.87615 15.5392 8.02879C15.2435 8.90511 14.6288 9.42058 13.9996 9.42058C13.3643 9.42058 12.7431 8.89521 12.4511 8.0048Z" fill="white"/>
</svg>
