<svg width="28" height="28" viewBox="0 0 28 28" fill="none" xmlns="http://www.w3.org/2000/svg">
<circle cx="14" cy="14" r="14" fill="#292930"/>
<path d="M15.942 9.87835C17.9275 9.0033 19.1913 9.21796 19.5887 9.78562C20.3459 10.8674 18.5216 13.5697 15.434 15.7317C12.347 17.8932 9.16599 18.6954 8.40876 17.6141C8.00286 17.0343 8.28569 15.7317 9.64859 14.3711" stroke="white"/>
<mask id="path-4-inside-1" fill="white">
<path fill-rule="evenodd" clip-rule="evenodd" d="M18.8837 12.6286C18.7008 12.0245 18.4059 11.4383 17.9957 10.9022C16.2637 8.63811 13.1324 8.12402 11.0018 9.75395C8.87114 11.3839 8.54805 14.5406 10.2801 16.8047C10.5956 17.2171 10.9576 17.5715 11.3515 17.8654C12.5886 17.4622 14.068 16.732 15.5152 15.7186C16.9231 14.7328 18.0867 13.6289 18.8837 12.6286ZM19.1064 13.9584C18.3552 14.9358 17.369 15.9035 16.1924 16.7273C14.9822 17.5747 13.7004 18.1668 12.4991 18.5175C14.0731 19.1667 15.886 19.0149 17.2741 17.953C18.5344 16.9888 19.1623 15.4903 19.1064 13.9584Z"/>
</mask>
<path fill-rule="evenodd" clip-rule="evenodd" d="M18.8837 12.6286C18.7008 12.0245 18.4059 11.4383 17.9957 10.9022C16.2637 8.63811 13.1324 8.12402 11.0018 9.75395C8.87114 11.3839 8.54805 14.5406 10.2801 16.8047C10.5956 17.2171 10.9576 17.5715 11.3515 17.8654C12.5886 17.4622 14.068 16.732 15.5152 15.7186C16.9231 14.7328 18.0867 13.6289 18.8837 12.6286ZM19.1064 13.9584C18.3552 14.9358 17.369 15.9035 16.1924 16.7273C14.9822 17.5747 13.7004 18.1668 12.4991 18.5175C14.0731 19.1667 15.886 19.0149 17.2741 17.953C18.5344 16.9888 19.1623 15.4903 19.1064 13.9584Z" fill="white"/>
<path d="M17.9957 10.9022L19.1871 9.99081V9.99081L17.9957 10.9022ZM18.8837 12.6286L20.0568 13.5634L20.5476 12.9475L20.3193 12.1939L18.8837 12.6286ZM11.0018 9.75395L10.0903 8.56258L10.0903 8.56258L11.0018 9.75395ZM10.2801 16.8047L11.4715 15.8933H11.4715L10.2801 16.8047ZM11.3515 17.8654L10.4544 19.0676L11.0773 19.5325L11.8163 19.2916L11.3515 17.8654ZM15.5152 15.7186L16.3756 16.9474L16.3756 16.9474L15.5152 15.7186ZM19.1064 13.9584L20.6054 13.9037L20.4535 9.7438L17.917 13.0443L19.1064 13.9584ZM16.1924 16.7273L17.0528 17.9561L17.0528 17.956L16.1924 16.7273ZM12.4991 18.5175L12.0787 17.0776L7.97764 18.275L11.9272 19.9042L12.4991 18.5175ZM17.2741 17.953L18.1855 19.1443L17.2741 17.953ZM16.8043 11.8136C17.1042 12.2056 17.3169 12.6301 17.4481 13.0634L20.3193 12.1939C20.0846 11.419 19.7075 10.6711 19.1871 9.99081L16.8043 11.8136ZM11.9132 10.9453C13.3186 9.87012 15.5227 10.1382 16.8043 11.8136L19.1871 9.99081C17.0046 7.13798 12.9461 6.37791 10.0903 8.56258L11.9132 10.9453ZM11.4715 15.8933C10.1898 14.2179 10.5077 12.0205 11.9132 10.9453L10.0903 8.56258C7.2346 10.7473 6.90631 14.8633 9.08874 17.7161L11.4715 15.8933ZM12.2485 16.6632C11.965 16.4517 11.7023 16.195 11.4715 15.8933L9.08874 17.7161C9.48896 18.2393 9.95011 18.6913 10.4544 19.0676L12.2485 16.6632ZM11.8163 19.2916C13.2101 18.8373 14.8214 18.0356 16.3756 16.9474L14.6549 14.4899C13.3145 15.4284 11.967 16.0871 10.8866 16.4393L11.8163 19.2916ZM16.3756 16.9474C17.8881 15.8883 19.1606 14.6881 20.0568 13.5634L17.7106 11.6939C17.0127 12.5697 15.9581 13.5773 14.6549 14.4899L16.3756 16.9474ZM17.917 13.0443C17.2579 13.902 16.3823 14.7632 15.3321 15.4986L17.0528 17.956C18.3556 17.0438 19.4525 15.9696 20.2957 14.8724L17.917 13.0443ZM15.3321 15.4986C14.2574 16.251 13.1246 16.7723 12.0787 17.0776L12.9195 19.9574C14.2763 19.5613 15.7069 18.8984 17.0528 17.9561L15.3321 15.4986ZM16.3627 16.7616C15.4395 17.4678 14.2002 17.5966 13.0711 17.1308L11.9272 19.9042C13.9459 20.7369 16.3324 20.5619 18.1855 19.1443L16.3627 16.7616ZM17.6074 14.0131C17.6472 15.1038 17.2024 16.1192 16.3627 16.7616L18.1855 19.1443C19.8665 17.8584 20.6774 15.8768 20.6054 13.9037L17.6074 14.0131Z" fill="white" mask="url(#path-4-inside-1)"/>
</svg>
