<svg width="28" height="28" viewBox="0 0 28 28" fill="none" xmlns="http://www.w3.org/2000/svg">
<circle cx="14" cy="14" r="14" fill="#292930"/>
<path d="M13.75 8C11.611 8 10 9.57291 10 11.2883C10 11.8426 10.4494 12.2919 11.0037 12.2919C11.5568 12.2919 12.0054 11.8445 12.0073 11.2919L12.0098 11.2272C12.0542 10.6771 12.7104 10.0073 13.75 10.0073C14.8311 10.0073 15.4927 10.7299 15.4927 11.2883C15.4927 11.5367 15.4581 11.6787 15.3687 11.8095C15.2715 11.9516 15.0982 12.0977 14.774 12.3224L14.4242 12.5673L14.4215 12.5693C13.8633 12.9763 13.4403 13.4027 13.1591 13.9336C12.8777 14.465 12.7463 15.086 12.7463 15.8695C12.7463 16.4238 13.1957 16.8732 13.75 16.8732C14.3043 16.8732 14.7537 16.4238 14.7537 15.8695C14.7537 15.3968 14.8146 15.0942 14.9518 14.8487C15.0902 14.6011 15.318 14.3901 15.6985 14.1239L16.0413 13.885L16.0433 13.8835C16.5314 13.533 16.8997 13.1899 17.1436 12.7759C17.3894 12.3587 17.5 11.885 17.5 11.2883C17.5 9.57398 15.8886 8 13.75 8Z" fill="white"/>
<path d="M13.75 18.1545C12.9888 18.1545 12.3718 18.7716 12.3718 19.5327C12.3718 20.2938 12.9888 20.9109 13.75 20.9109C14.5111 20.9109 15.1281 20.2938 15.1281 19.5327C15.1281 18.7716 14.5111 18.1545 13.75 18.1545Z" fill="white"/>
</svg>
