<svg width="28" height="28" viewBox="0 0 28 28" fill="none" xmlns="http://www.w3.org/2000/svg">
<circle cx="14" cy="14" r="14" fill="#292930"/>
<path d="M18.4103 18.3231C17.7727 19.31 16.039 20.1761 14.0002 20.1761C11.9614 20.1761 10.2277 19.31 9.59015 18.3231C9.32869 17.9185 9.34797 17.3951 9.34798 16.6352C9.34798 15.3087 9.34797 13.9148 9.34798 13.3029C12.9332 12.4993 15.0658 12.4993 18.651 13.3029C18.651 13.8128 18.651 15.3313 18.651 16.6352C18.651 17.3253 18.6815 17.9033 18.4103 18.3231Z" fill="white"/>
<path d="M20.2307 11.6162L20.2307 17.6162" stroke="white" stroke-width="1.2" stroke-linecap="round" stroke-linejoin="round"/>
<path d="M12.7233 16.1773C13.525 16.5876 14.475 16.5876 15.2767 16.1773L20.9241 13.2871C22.1772 12.6458 22.1772 10.8551 20.9241 10.2138L15.2767 7.32361C14.475 6.91332 13.525 6.91332 12.7233 7.32361L7.07588 10.2138C5.82283 10.8551 5.82283 12.6458 7.07588 13.2871L12.7233 16.1773Z" fill="white" stroke="#292930" stroke-width="1.3" stroke-linecap="round" stroke-linejoin="round"/>
</svg>
