<svg width="28" height="28" viewBox="0 0 28 28" fill="none" xmlns="http://www.w3.org/2000/svg">
<circle cx="14" cy="14" r="14" fill="#292930"/>
<ellipse cx="13.9977" cy="16.1301" rx="4.41173" ry="4.21992" fill="white"/>
<mask id="path-3-outside-1" maskUnits="userSpaceOnUse" x="6.99805" y="7.65234" width="14" height="9" fill="black">
<rect fill="white" x="6.99805" y="7.65234" width="14" height="9"/>
<path fill-rule="evenodd" clip-rule="evenodd" d="M8.83424 12.7978C9.02418 10.4768 10.9681 8.65234 13.3381 8.65234H14.6579C17.0273 8.65234 18.9707 10.4758 19.1616 12.7959C19.2907 12.8357 19.4134 12.894 19.5259 12.9692C20.1271 13.2728 20.1615 14.1185 19.5869 14.4699L19.5259 14.5073C15.9409 15.692 12.054 15.6954 8.47021 14.5073L8.4092 14.4699C7.8346 14.1185 7.86899 13.2728 8.47021 12.9692L8.48926 12.9577C8.59819 12.892 8.71387 12.8384 8.83424 12.7978Z"/>
</mask>
<path fill-rule="evenodd" clip-rule="evenodd" d="M8.83424 12.7978C9.02418 10.4768 10.9681 8.65234 13.3381 8.65234H14.6579C17.0273 8.65234 18.9707 10.4758 19.1616 12.7959C19.2907 12.8357 19.4134 12.894 19.5259 12.9692C20.1271 13.2728 20.1615 14.1185 19.5869 14.4699L19.5259 14.5073C15.9409 15.692 12.054 15.6954 8.47021 14.5073L8.4092 14.4699C7.8346 14.1185 7.86899 13.2728 8.47021 12.9692L8.48926 12.9577C8.59819 12.892 8.71387 12.8384 8.83424 12.7978Z" fill="white"/>
<path d="M8.83424 12.7978L9.15384 13.7454L9.77725 13.5351L9.83091 12.8794L8.83424 12.7978ZM19.1616 12.7959L18.165 12.8779L18.2205 13.5523L18.8672 13.7515L19.1616 12.7959ZM19.5259 12.9692L18.9701 13.8005L19.0208 13.8344L19.0751 13.8618L19.5259 12.9692ZM19.5869 14.4699L20.1086 15.323V15.323L19.5869 14.4699ZM19.5259 14.5073L19.8397 15.4568L19.9492 15.4206L20.0476 15.3604L19.5259 14.5073ZM8.47021 14.5073L7.94845 15.3603L8.04647 15.4203L8.15554 15.4565L8.47021 14.5073ZM8.4092 14.4699L8.93096 13.6169L8.93096 13.6168L8.4092 14.4699ZM8.47021 12.9692L8.921 13.8618L8.95442 13.8449L8.98648 13.8256L8.47021 12.9692ZM8.48926 12.9577L7.97301 12.1012L7.973 12.1012L8.48926 12.9577ZM13.3381 7.65234C10.4431 7.65234 8.06963 9.88058 7.83757 12.7163L9.83091 12.8794C9.97873 11.073 11.493 9.65234 13.3381 9.65234V7.65234ZM14.6579 7.65234H13.3381V9.65234H14.6579V7.65234ZM20.1582 12.7139C19.925 9.87932 17.5521 7.65234 14.6579 7.65234V9.65234C16.5025 9.65234 18.0164 11.0722 18.165 12.8779L20.1582 12.7139ZM18.8672 13.7515C18.9037 13.7628 18.9384 13.7793 18.9701 13.8005L20.0816 12.1378C19.8885 12.0087 19.6778 11.9085 19.4561 11.8402L18.8672 13.7515ZM19.0751 13.8618C18.977 13.8122 18.9714 13.6742 19.0651 13.6168L20.1086 15.323C21.3516 14.5628 21.2773 12.7333 19.9766 12.0765L19.0751 13.8618ZM19.0651 13.6168L19.0041 13.6542L20.0476 15.3604L20.1086 15.323L19.0651 13.6168ZM19.2121 13.5578C15.8303 14.6754 12.1638 14.6782 8.78489 13.5581L8.15554 15.4565C11.9443 16.7125 16.0516 16.7086 19.8397 15.4568L19.2121 13.5578ZM8.99198 13.6542L8.93096 13.6169L7.88744 15.323L7.94845 15.3603L8.99198 13.6542ZM8.93096 13.6168C9.02474 13.6742 9.01913 13.8122 8.921 13.8618L8.01943 12.0765C6.71884 12.7333 6.64446 14.5628 7.88744 15.323L8.93096 13.6168ZM8.98648 13.8256L9.00552 13.8141L7.973 12.1012L7.95395 12.1127L8.98648 13.8256ZM9.00551 13.8141C9.05235 13.7859 9.10209 13.7628 9.15384 13.7454L8.51464 11.8503C8.32566 11.914 8.14404 11.9981 7.97301 12.1012L9.00551 13.8141Z" fill="#292930" mask="url(#path-3-outside-1)"/>
<path fill-rule="evenodd" clip-rule="evenodd" d="M11.7931 11.9117L11.7006 8.998C11.6471 8.22484 12.2455 7.55564 13.0371 7.5032C13.0694 7.50113 13.1018 7.5 13.1341 7.5H14.864C15.6576 7.5 16.3008 8.12822 16.3008 8.90326C16.3008 8.94273 16.2993 8.98221 16.2958 9.02149L16.1342 11.9117" fill="white"/>
<path d="M11.7931 11.9117L11.7006 8.998C11.6471 8.22484 12.2455 7.55564 13.0371 7.5032C13.0694 7.50113 13.1018 7.5 13.1341 7.5H14.864C15.6576 7.5 16.3008 8.12822 16.3008 8.90326C16.3008 8.94273 16.2993 8.98221 16.2958 9.02149L16.1342 11.9117" stroke="#292930" stroke-linecap="round"/>
</svg>
