<svg width="28" height="20" viewBox="0 0 28 20" fill="none" xmlns="http://www.w3.org/2000/svg">
<rect width="28" height="16" rx="4" fill="#F323FF"/>
<path d="M13.2929 19.2929C13.6834 19.6834 14.3166 19.6834 14.7071 19.2929L18 16L10 16L13.2929 19.2929Z" fill="#F323FF"/>
<path fill-rule="evenodd" clip-rule="evenodd" d="M5.58531 11V7.98286L7.77286 11H8.99505V5H7.4186V8.01714L5.23105 5H4V11H5.58531ZM14.4301 11V9.56H12.03V8.67714H14.1644V7.26286H12.03V6.43143H14.3859V5H10.4447V11H14.4301ZM19.607 7.61429L18.6151 11H16.9412L15.2054 5H16.9147L17.8712 8.78L18.9782 5H20.227L21.3341 8.78L22.2994 5H23.9999L22.2728 11H20.599L19.607 7.61429Z" fill="white"/>
</svg>
